<svg id="Layer_1" data-name="Layer 1" xmlns="http://www.w3.org/2000/svg" viewBox="0 0 290.27 308.74"><defs><style>.cls-1{fill:#363651;}.cls-2{fill:#aebfe5;stroke-width:3px;}.cls-2,.cls-3{stroke:#fff;stroke-miterlimit:10;}.cls-3{fill:#4d4d66;stroke-width:1.9px;}.cls-4{fill:#ededed;}.cls-5{fill:#fff;}</style></defs><ellipse class="cls-1" cx="146.86" cy="134.79" rx="137.72" ry="134.79"/><circle class="cls-2" cx="153.98" cy="139.26" r="134.79"/><circle class="cls-3" cx="153.98" cy="139.26" r="85.4"/><path class="cls-1" d="M118.83,349.79a13.67,13.67,0,0,0,6.6-6.69c2-4.6-2.69-13.18-5.6-19.07s-8.89-19.86-12.52-29.49-11-36.61-12.5-42.77-.6-5.69,0-9,3.76-6.37,2.89-12.93S91,209.14,85.76,195.28s-4.59-11.17-4-9.2S92.15,223,92.38,224.91s-2.57,2.3-3.17.88-1-2.59-3.64-10-9.9-29.25-10.26-29.06,10.44,38.3,10.9,40.14c.41,1.66-.71,1.72-1,1.8h0c-.29.09-1.29.61-1.79-1-.55-1.82-10.87-40-11.31-40S76.6,210,78.22,217.79s1.84,9,2.06,10.47-2.35,2.67-3.16.87-10.31-36.79-10.85-38.77-1.39-4.6,1.26,10,4.93,29.67,7.56,35.75,7,7,9.14,9.58,2.72,1.69,4.61,7.75,9.45,33,11.3,43.12,3.9,25.18,4.43,31.73.92,16.33,5,19.23a13.91,13.91,0,0,0,9.09,2.35Z" transform="translate(-26.28 -41.84)"/><path class="cls-4" d="M117.18,350.44a13.76,13.76,0,0,0,6.59-6.69c2-4.6-2.68-13.18-5.59-19.07s-8.9-19.86-12.52-29.49-11-36.61-12.5-42.78-.61-5.68,0-9S96.87,237,96,230.47s-6.69-20.69-11.9-34.55-4.59-11.16-4-9.19,10.42,36.88,10.64,38.83-2.56,2.3-3.16.87-1-2.58-3.64-10S74,187.14,73.66,187.34s10.44,38.3,10.9,40.14c.4,1.66-.71,1.72-1,1.8h0c-.29.09-1.29.61-1.8-1-.54-1.82-10.86-40-11.3-40s4.52,22.45,6.14,30.2,1.84,8.95,2.05,10.48-2.34,2.67-3.15.87S65.16,193,64.61,191s-1.38-4.6,1.26,10,4.94,29.67,7.57,35.74,7,7,9.14,9.58,2.72,1.69,4.61,7.76,9.45,33,11.29,43.12,3.91,25.18,4.44,31.72.91,16.34,5,19.24a13.91,13.91,0,0,0,9.09,2.35Z" transform="translate(-26.28 -41.84)"/><path class="cls-1" d="M198,274s7,1.49,8.84,3.22,3.61,4.7-1.85,6.51-69.15,20.72-72.88,21.59-13.95,2.8-19.34,3.84-8.42,1.29-26.15,7.94-39.8,16.05-48.49,15.85c0,0-8,.34-9.73-6.13s3.2-9.06,8.42-11.2c0,0,11.32-4.2,35.68-9.4s28.55-5.77,33-7.12,14.63-6.11,19.94-8.39,23.8-8.31,39.55-12.3S191.8,273.13,198,274Z" transform="translate(-26.28 -41.84)"/><path class="cls-4" d="M196.24,271.89s7,1.5,8.83,3.23,3.62,4.7-1.84,6.5-69.16,20.72-72.88,21.59-14,2.8-19.35,3.84-8.41,1.29-26.14,7.95-39.8,16-48.49,15.85c0,0-8,.33-9.74-6.13s3.2-9.07,8.43-11.2c0,0,11.32-4.2,35.68-9.41s28.55-5.77,33-7.12,14.63-6.1,19.94-8.39,23.8-8.31,39.54-12.3S190,271.06,196.24,271.89Z" transform="translate(-26.28 -41.84)"/><path class="cls-5" d="M132.63,182.9a1.13,1.13,0,0,1-.37.27l-.41.2-.48.22c-.23.1-.49.22-.77.33l-.78.34-.47.21-.35.21a.39.39,0,0,1-.35,0,.43.43,0,0,1-.22-.14,1.15,1.15,0,0,1-.18-.24,5.71,5.71,0,0,0-.26-.64c-.13-.3-.28-.63-.46-1s-.35-.77-.55-1.19l-.57-1.18c-.18-.38-.33-.71-.46-1l-.29-.62q-2.07-4.57-4-9.23l-.51-1.14a.35.35,0,0,1,0-.33.42.42,0,0,1,.23-.24l.49-.24.81-.39.81-.4.49-.24.41-.16.44-.16a32.26,32.26,0,0,1,3.25-1.45c1.11-.42,2.19-.9,3.27-1.42l.41-.2.62-.3.63-.28a2.77,2.77,0,0,1,.42-.17.59.59,0,0,1,.56.15.6.6,0,0,1,.13.21l.09.23.46.82.17.37q.12.27.27.57l.29.57.18.36a.45.45,0,0,1,0,.34.38.38,0,0,1-.23.45l-8.24,3.73c.17.42.34.83.52,1.22s.36.8.53,1.22c1.26-.5,2.51-1,3.76-1.56l3.71-1.66q.39-.17.54.18l.25.51c.11.24.24.49.36.76s.23.53.33.78a2.48,2.48,0,0,1,.18.53.82.82,0,0,0,0,.21.59.59,0,0,1,0,.22c0,.1-.12.17-.26.24q-1.84.79-3.69,1.53a30.74,30.74,0,0,0-3.64,1.7c.06.15.21.46.44.93l.71,1.52.72,1.52c.22.47.37.78.43.93a3,3,0,0,1,.13.3c.06.15.12.32.2.49s.16.33.22.48l.14.3A.33.33,0,0,1,132.63,182.9Zm-3.1-.62a.4.4,0,0,0,.26.21.38.38,0,0,0,.28,0,.4.4,0,0,0,.19-.23.35.35,0,0,0-.06-.33c-.16-.33-.33-.64-.51-.95a7.22,7.22,0,0,1-.47-1l-.24-.57-.39-.89c-.15-.32-.28-.61-.4-.89s-.21-.46-.26-.55c-.13-.29-.25-.57-.37-.86s-.25-.58-.37-.86q.69-.22,1.35-.51l1.32-.59.22-.07.22-.07c.59-.21,1.17-.45,1.74-.7l1.73-.79.25-.08.34-.13.31-.15a.5.5,0,0,0,.2-.17.36.36,0,0,0-.1-.45.41.41,0,0,0-.48-.08l-.42.18-.43.15-.48.21-.74.34-.75.34L131,173a1.44,1.44,0,0,1-.27.1l-.43.15-.45.16-.28.1a13.29,13.29,0,0,0-1.34.59,5.25,5.25,0,0,1-1.39.5l-.61-1.35c-.08-.17-.15-.35-.22-.54s-.14-.38-.23-.57-.12-.29-.25-.58-.25-.61-.39-.94-.27-.64-.4-.93-.21-.49-.25-.59l.18-.08.28-.14.26-.13.17-.08.44-.13a2.19,2.19,0,0,0,.43-.15l1.1-.47a10.72,10.72,0,0,0,1.07-.54l.27-.18L129,167l.45-.21.68-.32.66-.33a3.93,3.93,0,0,0,.43-.24,3.48,3.48,0,0,1,.68-.38l.72-.31a.33.33,0,0,0,.22-.23.45.45,0,0,0,0-.28.36.36,0,0,0-.21-.21.43.43,0,0,0-.33,0l-.53.23a2.33,2.33,0,0,0-.51.25,1.58,1.58,0,0,0-.39.24,1.62,1.62,0,0,1-.39.25l-1.8.82-.35.23a1.82,1.82,0,0,1-.36.2l-1,.49c-.33.16-.66.31-1,.44a2.86,2.86,0,0,1-.44.14c-.22.07-.37.11-.43.14l-.2.1-.32.16-.34.16a.79.79,0,0,1-.23.07.3.3,0,0,0-.24.2.93.93,0,0,0-.08.35.24.24,0,0,0,0,.18.7.7,0,0,1,.06.17l.26.6.41,1c.15.34.28.66.41,1s.21.49.25.59.16.38.23.57a5.09,5.09,0,0,0,.22.54l1.3,2.87c.41.9.79,1.8,1.16,2.7a20.78,20.78,0,0,0,1.31,2.63,2,2,0,0,1,.1.26A.92.92,0,0,0,129.53,182.28Z" transform="translate(-26.28 -41.84)"/><path class="cls-5" d="M141.72,179.07a.38.38,0,0,1-.47.05.37.37,0,0,1-.18-.41.36.36,0,0,0,0-.11.16.16,0,0,1,0-.1c0-.15,0-.44-.08-.87s-.08-.89-.12-1.39-.06-1-.1-1.39l-.06-.87c0-.22-.06-.59-.1-1.12s-.08-1.13-.14-1.82-.11-1.41-.16-2.19-.11-1.5-.15-2.19-.09-1.29-.13-1.81-.06-.9-.06-1.13c0-.59-.06-1.17-.06-1.76s0-1.16,0-1.73v-.46a.49.49,0,0,1,.18-.37.62.62,0,0,1,.22-.31,2,2,0,0,1,.4-.27l.46-.22.37-.17.41-.2c.19-.1.4-.19.62-.29l.63-.28a3.25,3.25,0,0,1,.43-.15l.11,0h.1a.33.33,0,0,1,.44,0l.19.16.18.16q2.67,2.67,5.12,5.46c1.63,1.86,3.28,3.73,4.93,5.63.32.35.62.69.91,1s.62.66,1,1l.21.21a1.16,1.16,0,0,1,.19.24.32.32,0,0,1,0,.27.68.68,0,0,1-.16.26,2.4,2.4,0,0,1-.35.2l-.59.28-.59.27-.37.17-1,.5c-.33.17-.67.32-1,.47a.39.39,0,0,1-.26,0,.49.49,0,0,1-.21-.16c-.44-.6-.88-1.18-1.31-1.75l-1.3-1.75c-.87.32-1.71.66-2.53,1l-2.49,1.13c.06.58.11,1.16.17,1.72s.11,1.14.16,1.73c0,.05,0,.14,0,.26s0,.26.05.4,0,.27,0,.39,0,.22,0,.25a.39.39,0,0,1-.39.41l-.09,0-.58.29-.94.48-.94.49-.58.29Zm12.19-7a.39.39,0,0,0,.48-.06.37.37,0,0,0,.09-.45,1.72,1.72,0,0,0-.33-.38l-.38-.36c-.07-.08-.21-.24-.4-.48l-.59-.74c-.21-.26-.4-.51-.6-.74s-.31-.4-.37-.49l-1.42-1.74c-.47-.58-1-1.15-1.49-1.71a2.29,2.29,0,0,1-.29-.33l-.44-.54q-.25-.28-.45-.54l-.28-.36c-.07-.08-.2-.23-.4-.44l-.63-.7c-.22-.25-.44-.48-.64-.69l-.42-.45-.47-.41c-.16-.14-.31-.29-.46-.45s-.18-.19-.36-.38a1.6,1.6,0,0,0-.37-.34.68.68,0,0,0-.43,0,2.22,2.22,0,0,0-.42.2,1.33,1.33,0,0,1-.44.17.41.41,0,0,0-.27.12.32.32,0,0,0-.12.28c0,.07,0,.19,0,.37s0,.38,0,.58,0,.41,0,.59v.36c0,.14,0,.27,0,.39a1.76,1.76,0,0,0,0,.42,1.23,1.23,0,0,0,0,.23c0,.12,0,.24,0,.36v.37c0,.13,0,.21,0,.25s0,.11,0,.22,0,.23,0,.36l0,.35c0,.11,0,.18,0,.22s0,.39,0,.71,0,.69,0,1.09,0,.84,0,1.29,0,.89,0,1.29,0,.77.05,1.09,0,.56.07.7.05.27.08.41a2.56,2.56,0,0,1,0,.39,5,5,0,0,0,.08,1.11c.06.35.11.71.14,1.08,0,.08,0,.21,0,.41s0,.4.05.62,0,.43,0,.63,0,.33,0,.41a.77.77,0,0,0,0,.29.35.35,0,0,0,.16.26.65.65,0,0,0,.26.06.45.45,0,0,0,.23-.11.35.35,0,0,0,.13-.27,11.16,11.16,0,0,0,0-1.53c0-.5-.08-1-.13-1.55,0-.23-.07-.46-.1-.68a5.05,5.05,0,0,1-.06-.67,4.55,4.55,0,0,0-.09-.9s0-.06.07-.06l.11,0a3.21,3.21,0,0,0,.46-.16l.69-.27c.24-.09.47-.19.68-.29l.44-.19c.4-.22.81-.42,1.23-.61l1.24-.57.84-.42a2.92,2.92,0,0,1,.85-.32l.73-.33c.08,0,.13,0,.14,0,.46.56.91,1.11,1.33,1.67s.87,1.11,1.34,1.64a1.85,1.85,0,0,0,.14.14l.13.13a2.16,2.16,0,0,1,.25.26A.86.86,0,0,0,153.91,172Zm-8.45-2.71-.48.22-.74.33c-.26.12-.51.23-.74.31l-.51.18h-.08c0-.13,0-.39,0-.79s0-.81,0-1.25,0-.85,0-1.24,0-.65,0-.78a7.62,7.62,0,0,0,0-1.17c0-.38-.06-.77-.09-1.16a2.81,2.81,0,0,1,0-.3v-.46c0-.16,0-.31,0-.44s0-.24,0-.3c0-.34.06-.68.06-1s0-.67,0-1c0-.1,0-.15,0-.15l.57-.26c.26.28.53.55.8.8s.56.52.83.8l.86.88a11.75,11.75,0,0,1,.81.9c.05.08.15.2.28.37s.29.37.46.57.32.38.45.55a2.29,2.29,0,0,0,.29.33l.9,1,.88,1-.24.13a.72.72,0,0,1-.26.1,8.36,8.36,0,0,0-.83.32l-.81.39-.46.21-.72.33-.72.34Zm-1-1.17c.48-.19,1-.4,1.42-.61l1.38-.63-.58-.72c-.3-.37-.62-.75-1-1.16s-.67-.79-1-1.16-.5-.6-.6-.71,0,0,0,.08,0,.11,0,.13a.13.13,0,0,0,0,.09.16.16,0,0,1,0,.1c.05.77.1,1.54.16,2.3S144.4,167.38,144.45,168.15Z" transform="translate(-26.28 -41.84)"/><path class="cls-5" d="M176.73,163.06a2.1,2.1,0,0,1-.38.26l-.4.21-.48.2-.78.34-.77.35-.47.21-.36.19a.36.36,0,0,1-.33,0,.77.77,0,0,1-.24-.17.93.93,0,0,1-.17-.22c0-.15-.17-.44-.37-.89l-.65-1.4c-.24-.49-.46-1-.66-1.4s-.35-.73-.41-.87c-.3-.65-.59-1.28-.87-1.92s-.57-1.27-.85-1.93c0,.14,0,.36,0,.67s0,.67,0,1.09,0,.85,0,1.3,0,.88,0,1.3,0,.78,0,1.09,0,.54,0,.67,0,.27,0,.53a1.47,1.47,0,0,1-.06.52.66.66,0,0,1-.13.21,1.21,1.21,0,0,1-.18.17l-1.17.54c-.38.18-.76.39-1.13.61l-.33.19a.71.71,0,0,1-.37.1A.3.3,0,0,1,165,165a1.57,1.57,0,0,1-.19-.18,21.11,21.11,0,0,0-2.22-1.91c-.79-.57-1.55-1.18-2.3-1.81.07.14.19.39.35.74l.59,1.22.68,1.46.69,1.46c.22.46.41.87.56,1.23s.26.61.33.75l.09.23a.76.76,0,0,0,.11.22.32.32,0,0,1-.06.48.69.69,0,0,1-.25.19l-.42.2-.43.2-.29.13-.36.16-.56.24-.56.24-.36.16-.31.19a.41.41,0,0,1-.32,0,.35.35,0,0,1-.28-.13,1,1,0,0,1-.19-.26,4.73,4.73,0,0,0-.26-.63l-.45-1c-.17-.38-.36-.78-.56-1.19s-.38-.81-.56-1.19-.34-.7-.47-1l-.28-.62c-1.39-3.05-2.72-6.13-4-9.23l-.51-1.14a.35.35,0,0,1,0-.33.45.45,0,0,1,.24-.25l.52-.25.83-.4.84-.4.53-.24.44-.2A.88.88,0,0,1,156,152l.25.08.23.1.15.16c1.43,1.17,2.81,2.4,4.12,3.67s2.69,2.47,4.12,3.61a4.49,4.49,0,0,0,0-.62c0-.32,0-.65,0-1s0-.68,0-1,0-.52,0-.61q0-.65,0-1.26c0-.41,0-.82,0-1.22l-.06-2.46c0-.8,0-1.62.06-2.45,0-.08,0-.22,0-.43a1.16,1.16,0,0,1,.08-.39.64.64,0,0,1,.25-.24,3.18,3.18,0,0,1,.41-.25l.45-.21.33-.15.45-.22c.21-.11.45-.22.7-.33l.71-.33.45-.2a.47.47,0,0,1,.65.3l.51,1.13c.26.56.53,1.16.82,1.81l.83,1.81q.38.84.48,1.14c.21.49.41,1,.61,1.46s.41,1,.64,1.42l.65,1.37,1,2.17,1,2.19q.47,1,.6,1.38a1,1,0,0,0,.1.17.17.17,0,0,1,0,.16A.46.46,0,0,1,176.73,163.06Zm-2.87-.67a.41.41,0,0,0,.24.23.37.37,0,0,0,.29,0,.51.51,0,0,0,.21-.2.34.34,0,0,0,0-.32c-.13-.28-.26-.56-.41-.84s-.29-.55-.45-.82l-.21-.43c-.11-.21-.22-.44-.33-.67s-.23-.46-.32-.67-.16-.36-.2-.44l-1.11-2.39c-.38-.79-.75-1.59-1.12-2.39,0,0-.05-.12-.1-.27s-.09-.23-.11-.26l-1.89-4.17a.36.36,0,0,0-.42-.24,1.45,1.45,0,0,0-.54.19.4.4,0,0,0-.22.24,2.09,2.09,0,0,0-.12.4,2.12,2.12,0,0,0,0,.44c0,.16,0,.28,0,.38s0,.31-.08.63-.07.67-.1,1-.06.7-.09,1l-.06.63c-.06,1.09-.11,2.17-.16,3.23s-.13,2.12-.24,3.2c0,.06,0,.18,0,.36s0,.38,0,.6,0,.41,0,.6a3.15,3.15,0,0,0,0,.37c0,.08,0,.18,0,.32a.33.33,0,0,1-.11.28l-.15.08-.15.08-.28-.27-.28-.27c-.17-.16-.49-.43-1-.83L162.71,160c-.55-.45-1.06-.87-1.55-1.25s-.82-.65-1-.78l-.37-.25c-.11-.07-.22-.16-.34-.25-.38-.29-.77-.56-1.17-.82s-.79-.51-1.18-.77a11.82,11.82,0,0,1-1.06-.75,4.07,4.07,0,0,0-1.12-.61.38.38,0,0,0-.47.17.44.44,0,0,0,0,.54,3.78,3.78,0,0,1,.36.62c.16.3.32.62.48.95l.46,1c.14.32.24.53.29.64s.16.36.32.71.33.74.52,1.19.4.92.62,1.42.42,1,.61,1.42l.53,1.19.32.71c0,.08.07.17.11.26s.07.19.1.27.12.25.24.52.25.56.38.87.26.6.38.87.2.44.23.52a.38.38,0,0,0,.25.23.4.4,0,0,0,.29,0,.43.43,0,0,0,.21-.19.32.32,0,0,0,0-.33c0-.09-.13-.27-.25-.54l-.39-.87-.39-.86c-.12-.27-.21-.45-.25-.55l-.09-.24a1.91,1.91,0,0,0-.1-.24c-.67-1.48-1.33-3-2-4.46s-1.32-3-2-4.47l.64.43,1,.69,1,.68a7,7,0,0,1,.62.45l.44.29a3.52,3.52,0,0,1,.45.3l.71.56,1.13.9,1.11.93.71.57.72.62c.23.2.47.41.7.63l.37.34a1.14,1.14,0,0,0,.39.28.39.39,0,0,0,.26,0,1.38,1.38,0,0,0,.24-.14,1.68,1.68,0,0,1,.33-.19l.33-.17a.4.4,0,0,0,.13-.54,4.73,4.73,0,0,0,.07-1.24,6.21,6.21,0,0,1,0-1.22c.08-.68.13-1.36.17-2s.08-1.34.11-2c0-.13,0-.37,0-.71s0-.73.07-1.16.07-.89.11-1.36.08-.93.12-1.36.06-.8.09-1.14.05-.57.06-.71l.3.66c.15.32.31.68.5,1.1l.59,1.33c.21.47.4.92.59,1.34s.36.78.5,1.1l.3.66c.07.14.2.44.42.88l.67,1.43.67,1.42.42.88c.1.2.21.4.32.59l.34.62a4.16,4.16,0,0,1,.24.47Z" transform="translate(-26.28 -41.84)"/><path class="cls-5" d="M184.77,159.3a1,1,0,0,1-.38.27l-.41.2-.47.22-.78.33-.77.34-.48.22-.35.2a.37.37,0,0,1-.34,0,.35.35,0,0,1-.22-.14.8.8,0,0,1-.19-.24,4.24,4.24,0,0,0-.26-.64l-.45-1-.56-1.19-.56-1.18c-.18-.38-.34-.71-.47-1s-.23-.5-.29-.63q-2.07-4.57-4-9.23l-.51-1.14a.33.33,0,0,1,0-.32.44.44,0,0,1,.23-.25l.48-.23.77-.36.76-.37.48-.23.83-.36a.5.5,0,0,1,.66.12,2,2,0,0,1,.18.33c.07.17.15.34.24.53s.16.37.23.54.12.29.14.35c.89,1.86,1.71,3.74,2.47,5.62.07.18.21.48.41.91l.69,1.49.83,1.78c.3.62.57,1.22.83,1.77s.5,1.06.69,1.49l.42.91.09.23a.65.65,0,0,0,.11.22A.33.33,0,0,1,184.77,159.3Zm-3-.28a.39.39,0,0,0,.27-.72.52.52,0,0,1-.16-.27c-.06-.14-.1-.25-.13-.31-.12-.21-.29-.57-.51-1.06s-.47-1-.75-1.68-.57-1.31-.86-2l-.86-2c-.27-.64-.51-1.2-.71-1.7s-.35-.86-.44-1.09c0,0,0-.1-.07-.21s-.07-.23-.11-.35-.09-.23-.13-.34a1.59,1.59,0,0,0-.08-.21c-.15-.37-.31-.73-.5-1.1s-.35-.72-.52-1.09a.43.43,0,0,0-.23-.23.39.39,0,0,0-.3,0,.45.45,0,0,0-.2.21.39.39,0,0,0,0,.33l.19.42c.09.21.2.43.32.67s.22.45.31.67l.19.41a4.42,4.42,0,0,1,.18.46l.28.73c.09.26.19.51.28.75s.14.38.17.45.2.51.38.94.4.92.63,1.47l.74,1.76c.26.62.52,1.21.77,1.75s.46,1,.66,1.46.34.73.44.91l.18.4a2,2,0,0,0,.22.42A.51.51,0,0,0,181.73,159Z" transform="translate(-26.28 -41.84)"/><path class="cls-5" d="M201.06,152.17c-.67.33-1.35.63-2.05.9l-2.09.87c-.72.3-1.42.61-2.11.92s-1.39.61-2.11.9a1.08,1.08,0,0,0-.29.13,2.4,2.4,0,0,1-.27.16l-.5.22-.8.37-.8.34-.49.21c-.12.08-.24.14-.35.2a.4.4,0,0,1-.35,0,.52.52,0,0,1-.22-.14.65.65,0,0,1-.18-.25,6.71,6.71,0,0,0-.26-.63l-.46-1c-.17-.38-.35-.78-.55-1.19l-.57-1.19c-.18-.37-.33-.71-.47-1s-.22-.5-.28-.62q-2.07-4.57-4-9.23l-.52-1.14a.38.38,0,0,1,0-.33.47.47,0,0,1,.23-.25l.48-.23.76-.36.77-.36.48-.23.82-.36c.3-.12.52-.09.67.11l.07.17c.46,1,.93,2.08,1.41,3.08s.94,2,1.36,3.09c.22.58.46,1.16.72,1.72s.53,1.14.8,1.7l.32.67c.16.33.33.69.5,1.08l.51,1.1c.17.34.28.57.33.68,1.33-.59,2.66-1.15,4-1.69s2.65-1.14,3.95-1.8a.31.31,0,0,1,.19,0l.18,0a.35.35,0,0,1,.23.07.45.45,0,0,1,.14.19c0,.08.1.23.2.46l.29.71.29.69a3.12,3.12,0,0,0,.21.44.62.62,0,0,1,.12.45A.41.41,0,0,1,201.06,152.17Zm-2.59-.62a.37.37,0,0,0,.23-.23.41.41,0,0,0-.22-.5.41.41,0,0,0-.34,0l-7.6,3.45-.5-1.09-.83-1.75-.83-1.75c-.27-.54-.44-.9-.52-1.08l-.27-.59-.43-1c-.16-.34-.3-.66-.45-.95a5.23,5.23,0,0,0-.3-.58c-.4-.71-.77-1.44-1.1-2.17s-.67-1.47-1-2.21a.07.07,0,0,1,0-.06s0,0,0,0a.4.4,0,0,0-.28-.3.38.38,0,0,0-.42.16.44.44,0,0,0,0,.47l1,2.26c.34.75.71,1.49,1.12,2.22a5.23,5.23,0,0,1,.3.58l.45.95.43,1,.27.59.54,1.13.87,1.82.86,1.84c.27.57.45,1,.53,1.14a.32.32,0,0,0,.33.22l.21,0a.22.22,0,0,0,.16,0Z" transform="translate(-26.28 -41.84)"/><path class="cls-5" d="M208.58,148.62l-.65.31-1,.47-1,.45a3.3,3.3,0,0,1-.68.24l-.21,0a.23.23,0,0,1-.19-.06s0,0-.06-.06a.1.1,0,0,1,0-.06c-.56-1.19-1.11-2.39-1.65-3.59s-1.05-2.42-1.55-3.64a.27.27,0,0,0-.09-.11c0-.05-.08-.08-.08-.1a6.1,6.1,0,0,1-.8-.49l-1.24-.85-1.24-.85c-.39-.26-.64-.44-.76-.54q-.78-.54-1.56-1c-.52-.33-1-.65-1.57-1l-.29-.18-.45-.27-.46-.25a1.2,1.2,0,0,0-.31-.13.42.42,0,0,1-.31-.29.36.36,0,0,1,.11-.39,4.51,4.51,0,0,0,.47-.51c.21-.26.45-.54.71-.84s.49-.57.72-.82a3,3,0,0,1,.5-.49.81.81,0,0,1,.28-.12.31.31,0,0,1,.3,0l.7.5,1.11.81,1.1.81.68.51,1.14.9c.37.29.75.58,1.14.86l0,0a.21.21,0,0,1,0,.07.06.06,0,0,0,.06,0,.16.16,0,0,1,.09,0c.14.11.28.22.43.32l.43.32s0-.11,0-.21l0-.31c0-.11,0-.21,0-.31a1.72,1.72,0,0,0,0-.2.06.06,0,0,0,0-.06.09.09,0,0,1,0-.06l0-.07a.11.11,0,0,1,0-.05c0-.44.06-.87.08-1.3s0-.86.08-1.29l.06-.91c0-.46.07-.94.12-1.45s.08-1,.13-1.45.07-.75.1-.91a.39.39,0,0,1,.16-.27.91.91,0,0,1,.28-.14,3.3,3.3,0,0,1,.69,0h1.1l1.09,0a4.32,4.32,0,0,0,.7,0,.39.39,0,0,1,.36.18.32.32,0,0,1,0,.39c0,.11-.09.31-.16.58s-.13.58-.2.89-.12.61-.16.89-.08.48-.1.6c-.19,1.15-.33,2.3-.44,3.44s-.26,2.29-.44,3.44q0,.09-.06.27a.38.38,0,0,0,0,.25c.33.65.66,1.3,1,2s.62,1.3.92,2c0,.1.14.31.29.64s.3.69.46,1.06.32.73.46,1.05l.3.65a.08.08,0,0,1,0,.07.08.08,0,0,0,0,.07c0,.15-.07.26-.25.35A3.73,3.73,0,0,1,208.58,148.62Zm-2.37-.52a.33.33,0,0,0,.23.22.34.34,0,0,0,.28,0,.38.38,0,0,0,.21-.2.45.45,0,0,0,0-.34L204.76,143c0-.05-.07-.14-.14-.28l-.23-.45c-.09-.16-.17-.32-.24-.46s-.12-.25-.15-.3a.37.37,0,0,0,.06-.21c0-.11,0-.23.05-.35s0-.23,0-.35a.93.93,0,0,1,0-.24,1.33,1.33,0,0,1,.05-.19c0-.07,0-.13,0-.19a1.22,1.22,0,0,0,0-.32,1,1,0,0,1,.06-.33c0-.09.05-.25.09-.5s.08-.51.12-.78.08-.53.12-.78.07-.41.09-.5c.07-.41.15-.83.24-1.23s.16-.82.23-1.24a.82.82,0,0,0,0-.26,1.24,1.24,0,0,1,.06-.27s0-.14.07-.29.06-.3.09-.45.06-.31.1-.45,0-.24.06-.3a3.19,3.19,0,0,0,.05-.42,2,2,0,0,1,.05-.42,1.28,1.28,0,0,0,0-.17l0-.17a.38.38,0,0,0-.13-.3.5.5,0,0,0-.28-.1.36.36,0,0,0-.27.11.38.38,0,0,0-.11.31,2.14,2.14,0,0,1,0,.25,1.65,1.65,0,0,1-.05.27c0,.12,0,.24,0,.36a1.75,1.75,0,0,1,0,.33c-.16.72-.31,1.42-.46,2.12s-.28,1.4-.4,2.1a4.39,4.39,0,0,0-.08.49c0,.24-.07.51-.11.79s-.09.55-.13.8-.06.41-.08.5a1.39,1.39,0,0,0-.08.3l-.09.5c0,.17-.05.34-.07.5a1.45,1.45,0,0,0,0,.33c-.23-.17-.46-.32-.68-.47a6.08,6.08,0,0,1-.66-.47s-.18-.11-.37-.25a1.89,1.89,0,0,0-.39-.23l-.17-.08-.28-.15-.27-.13-.17-.09-.49-.33-.79-.5c-.28-.17-.54-.34-.79-.48l-.49-.3a7.42,7.42,0,0,1-.83-.47,6.52,6.52,0,0,0-.8-.48l-.15-.09-.25-.16-.22-.15-.15-.11a.43.43,0,0,1-.12-.11.38.38,0,0,0-.13-.12.33.33,0,0,0-.32,0,.45.45,0,0,0-.2.21.41.41,0,0,0,0,.29.35.35,0,0,0,.21.24l0,0a.08.08,0,0,1,0,0c.09.07.25.18.49.33l.77.47.78.46.51.29.51.31.79.5.8.51.5.3a.67.67,0,0,0,.21.12l.34.17.34.17a.86.86,0,0,1,.19.11l.92.65.93.65.15.09a.37.37,0,0,1,.11.11c0,.09.13.29.28.58s.29.62.46.95.31.65.47,1l.29.58.28.62c.15.33.3.68.46,1.05s.32.73.46,1Z" transform="translate(-26.28 -41.84)"/><path class="cls-5" d="M179.47,191.43a7.71,7.71,0,0,1-1.7,1c-.61.26-1.22.49-1.85.7a10.52,10.52,0,0,1-1.67.44,5.41,5.41,0,0,1-1.7.06,5.35,5.35,0,0,1-1.46-.39,6.2,6.2,0,0,1-1.32-.78,7.37,7.37,0,0,1-1.54-1.61,18.27,18.27,0,0,1-1.16-1.93A22.28,22.28,0,0,1,165.9,186a14.36,14.36,0,0,1-.65-3,8.13,8.13,0,0,1,0-2,7.07,7.07,0,0,1,.56-1.95,6.2,6.2,0,0,1,.49-1,4.87,4.87,0,0,1,.67-.83,8.18,8.18,0,0,1,.82-.74,4.34,4.34,0,0,1,.93-.56l.32-.21a2.43,2.43,0,0,1,.32-.2,9.44,9.44,0,0,1,1.06-.52c.36-.16.73-.3,1.1-.43a7.81,7.81,0,0,1,1.17-.33,6.16,6.16,0,0,1,1.21-.15,6.45,6.45,0,0,1,1.5.14,4.54,4.54,0,0,1,1.4.52,6.16,6.16,0,0,1,1.57,1.18,12,12,0,0,1,1.24,1.54,15.94,15.94,0,0,1,1.44,2.63,19.06,19.06,0,0,1,1,2.84,10.54,10.54,0,0,1,.3,1.62,6.51,6.51,0,0,1,0,1.65,7.13,7.13,0,0,1-.43,1.94,6.27,6.27,0,0,1-1,1.83A7.82,7.82,0,0,1,179.47,191.43Zm-4.45-.18a4.3,4.3,0,0,0,.6-.17c.27-.09.56-.2.86-.33l.85-.36a2,2,0,0,0,.54-.29l.19-.08a1,1,0,0,0,.2-.13,4.08,4.08,0,0,0,.92-.85,3.88,3.88,0,0,0,.62-1.1l.14-.27a2,2,0,0,0,.1-.29,1.78,1.78,0,0,0,.05-.35l0-.53c0-.19,0-.37,0-.54a2.28,2.28,0,0,0,0-.36.88.88,0,0,0,0-.24.75.75,0,0,1,0-.24,3,3,0,0,0-.09-.36c0-.16-.1-.35-.17-.55l-.17-.55c-.06-.16-.1-.28-.13-.34s-.12-.34-.24-.66-.27-.66-.43-1-.32-.69-.46-1l-.3-.67c-.13-.2-.26-.41-.38-.62l-.39-.63c-.19-.35-.39-.69-.59-1a5,5,0,0,0-.73-.94,2.72,2.72,0,0,0-.63-.47,1.81,1.81,0,0,0-.74-.22l-.21,0a1.74,1.74,0,0,0-1,0l-1,.22a5.55,5.55,0,0,0-.62.2,2.18,2.18,0,0,0-.6.32l-.14.15a.37.37,0,0,1-.18.14l-.43.2a1.27,1.27,0,0,0-.4.24.83.83,0,0,1-.32.2,1.37,1.37,0,0,0-.37.17l-.18.15a.86.86,0,0,1-.17.15l-.43.31a2,2,0,0,0-.4.38,1.72,1.72,0,0,0-.18.28,2.74,2.74,0,0,0-.21.42c-.07.16-.12.31-.17.45a3.51,3.51,0,0,0-.1.35,5.63,5.63,0,0,0-.06,1.14,10.35,10.35,0,0,0,.5,2c.23.64.47,1.27.72,1.9.08.23.16.46.25.68s.18.46.28.68c.25.57.51,1.14.75,1.73a7,7,0,0,0,1,1.6.67.67,0,0,0,.15.19l.27.24.26.23a1.3,1.3,0,0,0,.21.17,2.07,2.07,0,0,0,.68.34c.25.08.51.14.76.2a1.34,1.34,0,0,0,.4.06,1.42,1.42,0,0,0,.41,0l.19,0,.29,0,.29-.05A.82.82,0,0,0,175,191.25Zm2.24-1.67-.45.19-.73.29-.73.27a4.3,4.3,0,0,1-.47.16l-.19,0-.34.05-.34.06-.21.05a1.83,1.83,0,0,1-.44-.06,1.59,1.59,0,0,1-.41-.12,2.58,2.58,0,0,1-.39-.14,1.68,1.68,0,0,1-.37-.21,5.34,5.34,0,0,1-.6-.57,3.22,3.22,0,0,1-.48-.68,19.88,19.88,0,0,1-1.27-2.73c-.35-1-.72-1.89-1.1-2.82a2.05,2.05,0,0,1-.13-.4l-.14-.6c-.05-.22-.1-.42-.15-.61a1.64,1.64,0,0,1-.07-.42,2.91,2.91,0,0,1,.54-2,2.48,2.48,0,0,1,.34-.3c.17-.14.3-.23.37-.28l.16-.13.17-.14.39-.19.56-.31c.19-.11.37-.22.53-.33a1.4,1.4,0,0,0,.34-.25,2.07,2.07,0,0,1,.4-.24,4.2,4.2,0,0,1,.6-.21l.63-.16a2.59,2.59,0,0,1,.47-.06,2.93,2.93,0,0,1,.69.11,2.67,2.67,0,0,1,.66.23,2.12,2.12,0,0,1,.62.61c.17.26.34.51.49.77s.39.66.6,1a10.07,10.07,0,0,1,.59,1c0,.09.13.28.25.55s.26.57.39.89.26.6.39.88.2.46.25.55.1.26.17.48.14.46.21.72.13.5.19.73a3.35,3.35,0,0,1,.1.51,1.25,1.25,0,0,1,0,.28c0,.14,0,.28,0,.44s0,.3,0,.43a2.89,2.89,0,0,1,0,.29.46.46,0,0,1,0,.2,1.67,1.67,0,0,1-.08.2,4.67,4.67,0,0,1-.34.67,2.71,2.71,0,0,1-.44.57l-.25.23a1.42,1.42,0,0,1-.27.2l-.27.15A2.14,2.14,0,0,1,177.26,189.58Zm-3.28-1.2a2.16,2.16,0,0,0,1.41-.12,3,3,0,0,0,1.16-.82,1.29,1.29,0,0,0,.28-.64,3,3,0,0,0,0-.73,8.11,8.11,0,0,0-.34-1.6,16.91,16.91,0,0,0-.7-1.95,11.38,11.38,0,0,0-.93-1.81,3.88,3.88,0,0,0-1.05-1.18,2.25,2.25,0,0,0-.52-.24,1.48,1.48,0,0,0-.59-.08,3.23,3.23,0,0,0-1.36.53,1.46,1.46,0,0,0-.24.25,3.73,3.73,0,0,0-.25.39,3,3,0,0,0-.18.41,3.14,3.14,0,0,0-.11.33,4,4,0,0,0,0,1.33,7.29,7.29,0,0,0,.33,1.3c.2.52.4,1,.61,1.55a13.72,13.72,0,0,0,.69,1.51,4.64,4.64,0,0,0,.75,1A2.13,2.13,0,0,0,174,188.38Z" transform="translate(-26.28 -41.84)"/><path class="cls-5" d="M192.34,185.49a1.2,1.2,0,0,1-.38.27l-.41.2-.47.21-.78.34-.77.34-.48.21-.35.2a.41.41,0,0,1-.34,0,.47.47,0,0,1-.22-.14.74.74,0,0,1-.18-.25c-.05-.13-.13-.34-.27-.64l-.45-1c-.17-.38-.36-.78-.56-1.19s-.38-.81-.56-1.19-.34-.71-.47-1-.23-.5-.28-.63c-1.39-3-2.72-6.12-4-9.23l-.51-1.13a.33.33,0,0,1,0-.33.41.41,0,0,1,.23-.25l.49-.23.8-.4.81-.39.49-.24.41-.16.44-.17a33.64,33.64,0,0,1,3.26-1.44c1.1-.43,2.19-.9,3.26-1.43l.41-.2.63-.29.62-.29a2.47,2.47,0,0,1,.43-.16.53.53,0,0,1,.55.15.49.49,0,0,1,.14.21,1.36,1.36,0,0,0,.09.23l.45.82c0,.06.09.18.17.36a6.1,6.1,0,0,0,.28.58l.28.57.18.36a.44.44,0,0,1,0,.34.36.36,0,0,1-.22.44l-8.25,3.74c.17.42.35.82.53,1.22s.35.8.52,1.21c1.26-.49,2.51-1,3.76-1.56s2.49-1.09,3.72-1.65a.35.35,0,0,1,.54.18c0,.1.12.26.24.5s.24.5.36.77l.34.77a2.34,2.34,0,0,1,.17.54,2,2,0,0,0,0,.21.71.71,0,0,1,0,.22.49.49,0,0,1-.27.23q-1.83.81-3.69,1.53a33.34,33.34,0,0,0-3.64,1.71l.44.93.72,1.52c.25.53.48,1,.71,1.51l.44.93.12.3c.06.16.13.32.21.49l.22.49c.07.15.11.25.13.3A.33.33,0,0,1,192.34,185.49Zm-3.11-.62a.39.39,0,0,0,.55.16.4.4,0,0,0,.18-.22.39.39,0,0,0-.05-.34c-.17-.32-.34-.64-.52-.95a7.9,7.9,0,0,1-.47-1l-.24-.56c-.12-.28-.24-.58-.39-.89l-.4-.89c-.13-.28-.21-.46-.25-.56-.13-.28-.26-.57-.38-.86s-.24-.57-.37-.85c.46-.16.91-.33,1.35-.52l1.32-.58.22-.07.23-.08c.59-.21,1.17-.44,1.73-.7l1.73-.78.25-.08.34-.13a3.18,3.18,0,0,0,.32-.16.58.58,0,0,0,.2-.16.38.38,0,0,0-.11-.46.41.41,0,0,0-.48-.07l-.42.17a3.12,3.12,0,0,1-.43.15l-.47.22-.75.34-.74.34-.48.21-.27.09-.43.16-.44.15-.28.1a11.57,11.57,0,0,0-1.35.6,5.63,5.63,0,0,1-1.39.5l-.61-1.35-.22-.54c-.06-.19-.14-.38-.22-.57s-.13-.29-.25-.59-.26-.6-.4-.93-.27-.64-.39-.94-.21-.49-.25-.58l.17-.08.28-.14.27-.14.16-.07.45-.13L186,171l1.1-.47c.36-.17.72-.35,1.06-.55l.28-.18.27-.18.45-.2.68-.33.67-.33a3.1,3.1,0,0,0,.42-.23,3.8,3.8,0,0,1,.68-.38l.72-.31a.33.33,0,0,0,.22-.23.37.37,0,0,0,0-.29.39.39,0,0,0-.2-.2.38.38,0,0,0-.34,0c-.07,0-.25.11-.52.22a4.36,4.36,0,0,0-.52.25,2,2,0,0,0-.39.25,1.67,1.67,0,0,1-.38.25l-1.8.81-.36.23a2.12,2.12,0,0,1-.36.21l-1,.49-1,.44-.43.14a2.86,2.86,0,0,0-.44.14l-.19.1-.33.16-.33.15a.94.94,0,0,1-.24.08.29.29,0,0,0-.24.2.85.85,0,0,0-.08.35.24.24,0,0,0,0,.18.32.32,0,0,1,.06.17c.05.1.13.3.26.6l.41,1,.41,1c.12.29.21.49.25.58s.16.38.23.57.14.37.22.55l1.3,2.87q.61,1.35,1.17,2.7a20.13,20.13,0,0,0,1.31,2.63l.1.26A1.08,1.08,0,0,0,189.23,184.87Z" transform="translate(-26.28 -41.84)"/><path class="cls-5" d="M151.5,233.78c-1.24.56-2.45,1.14-3.66,1.73s-2.43,1.15-3.68,1.68c-.12.06-.37.16-.73.3l-1.16.47-1.16.49-.72.31-.35.2a.41.41,0,0,1-.34,0,.39.39,0,0,1-.22-.15.8.8,0,0,1-.19-.24A6.6,6.6,0,0,0,139,238l-.45-1c-.18-.37-.36-.77-.56-1.19s-.38-.81-.56-1.18-.34-.71-.47-1-.23-.5-.29-.63q-2.07-4.57-4-9.23l-.51-1.14a.33.33,0,0,1,0-.32.44.44,0,0,1,.23-.25l.48-.23.77-.36.76-.36.48-.24q2.13-1,4.25-2t4.29-1.91l.37-.19a.92.92,0,0,1,.4-.13.39.39,0,0,1,.28.08,1.64,1.64,0,0,1,.24.27,2.21,2.21,0,0,1,.18.34l.13.33c.17.4.33.8.5,1.19s.32.78.46,1.17a.33.33,0,0,1-.08.39,1.28,1.28,0,0,1-.39.28l-3.09,1.53c-1,.51-2.07,1-3.13,1.49l-.23.1-.38.19-.39.19-.22.1c.17.42.35.83.53,1.22a10.47,10.47,0,0,1,.5,1.2c1-.42,2-.86,2.95-1.32S144,224.45,145,224l.1-.06a.2.2,0,0,1,.11,0,.37.37,0,0,1,.31.08.44.44,0,0,1,.14.28c.24.52.47,1.05.7,1.57s.46,1.06.7,1.59a.46.46,0,0,1-.2.56l-.65.3-1,.49-1.25.57-1.27.57-1.06.5-.64.31c0,.08.11.23.22.45s.23.48.35.76.24.53.35.76l.22.48c1.17-.52,2.33-1,3.49-1.56s2.3-1.07,3.45-1.64l.25-.18a.47.47,0,0,1,.26-.08.37.37,0,0,1,.6.12,6,6,0,0,1,.31.63c.15.33.31.68.49,1.05s.34.71.48,1,.26.53.32.64a.33.33,0,0,1,0,.32A.44.44,0,0,1,151.5,233.78Zm-7.72,2.07a5.89,5.89,0,0,0,1.08-.5c.33-.2.68-.39,1-.57a5.54,5.54,0,0,1,.62-.33l1-.48,1-.49.64-.3a.39.39,0,0,0,.24-.28.37.37,0,0,0-.06-.32.47.47,0,0,0-.25-.21.36.36,0,0,0-.35.09,1.45,1.45,0,0,1-.25.14l-.4.18-.38.19-.25.12a7.81,7.81,0,0,1-1,.48,9.32,9.32,0,0,0-.95.47c-.35.18-.7.37-1,.57a5.67,5.67,0,0,1-1.06.49c-.32.11-.62.22-.92.35a6.46,6.46,0,0,0-.87.44l-.37.19-.38.17-.3-.67c-.16-.34-.32-.71-.49-1.11s-.34-.76-.49-1.1-.26-.57-.31-.68l-.2-.49c-.11-.25-.22-.51-.33-.79s-.23-.55-.33-.8-.18-.41-.21-.49l.53-.25.81-.4.81-.39a3.64,3.64,0,0,0,.5-.27,3.39,3.39,0,0,1,.66-.33l.67-.27c.28-.11.55-.23.82-.36l.83-.42a1.87,1.87,0,0,1,.31-.17,1.13,1.13,0,0,1,.34-.1.34.34,0,0,0,.28-.27.41.41,0,0,0-.07-.39.43.43,0,0,0-.57-.09l-.66.33a5.78,5.78,0,0,1-.94.45l-1,.41c-.63.29-1.25.59-1.85.91s-1.22.62-1.83.9l-2.72-6,0-.09a.2.2,0,0,1,0-.11,4.18,4.18,0,0,0,.68-.38,2.41,2.41,0,0,1,.71-.33,11.67,11.67,0,0,0,1.22-.42c.4-.15.79-.32,1.19-.5l1.05-.51c.35-.16.7-.3,1.06-.43a9.1,9.1,0,0,0,1.27-.45,9,9,0,0,1,1.25-.48.41.41,0,0,0,.42-.27.35.35,0,0,0-.17-.45.41.41,0,0,0-.33-.08c-.1,0-.3.09-.59.2s-.6.22-.93.35l-.92.36-.58.23a.48.48,0,0,1-.18,0l-.18,0-.46.22-.74.35-.74.35-.46.22-.31.12-.52.18-.53.18-.33.12a6.85,6.85,0,0,0-.71.37l-.73.37a.52.52,0,0,0-.26.3.47.47,0,0,0,0,.4q1.11,2.44,2.2,4.83c.73,1.6,1.43,3.21,2.1,4.85.06.13.17.38.33.76l.53,1.2.54,1.2.33.72a.36.36,0,0,0,.27.24.81.81,0,0,0,.37,0,1.45,1.45,0,0,0,.42-.16l.41-.2.29-.16.28-.16a3.79,3.79,0,0,1,.67-.33Z" transform="translate(-26.28 -41.84)"/><path class="cls-5" d="M154.34,232.63a.37.37,0,0,1-.46.06.38.38,0,0,1-.19-.42.16.16,0,0,0,0-.1.15.15,0,0,1,0-.11c0-.15,0-.43-.08-.86s-.08-.89-.12-1.39-.07-1-.1-1.4-.06-.72-.07-.87,0-.58-.09-1.11-.08-1.13-.14-1.82-.11-1.42-.16-2.19-.11-1.51-.15-2.19-.09-1.29-.13-1.82-.06-.9-.06-1.12c0-.59-.06-1.18-.06-1.76s0-1.16,0-1.74c0-.15,0-.3,0-.46a.51.51,0,0,1,.18-.37.71.71,0,0,1,.21-.31,2.42,2.42,0,0,1,.41-.27l.46-.22.36-.16.41-.2.63-.3.63-.27a3.25,3.25,0,0,1,.43-.15l.11,0h.1a.36.36,0,0,1,.44,0l.19.16.18.16q2.67,2.67,5.12,5.46l4.93,5.63.91,1c.29.33.61.67,1,1l.21.2a2.21,2.21,0,0,1,.19.24.34.34,0,0,1,0,.28.62.62,0,0,1-.15.25,1.93,1.93,0,0,1-.35.21l-.59.28-.59.26-.37.17-1,.51c-.33.17-.67.32-1,.46a.3.3,0,0,1-.26,0,.37.37,0,0,1-.21-.16l-1.31-1.75c-.43-.56-.86-1.15-1.31-1.75-.86.32-1.7.67-2.53,1l-2.48,1.12c.05.59.11,1.16.17,1.73s.11,1.14.16,1.72c0,.05,0,.14,0,.27s0,.25.05.39l0,.4a1.52,1.52,0,0,1,0,.25.38.38,0,0,1-.39.4l-.09.05-.59.29-.93.48-.94.48-.58.29Zm12.2-7a.36.36,0,0,0,.47-.05.39.39,0,0,0,.1-.46,2,2,0,0,0-.33-.38c-.19-.17-.31-.29-.38-.36s-.21-.23-.4-.47l-.59-.74-.6-.75a5.53,5.53,0,0,1-.37-.49L163,220.15c-.47-.57-1-1.14-1.49-1.7a2.29,2.29,0,0,1-.29-.33q-.19-.26-.45-.54c-.16-.19-.31-.37-.44-.54l-.28-.36-.4-.45-.63-.7-.64-.69-.42-.44-.47-.41c-.16-.14-.31-.29-.46-.45s-.19-.19-.36-.38a1.73,1.73,0,0,0-.37-.35.78.78,0,0,0-.43,0,1.54,1.54,0,0,0-.42.19,1.13,1.13,0,0,1-.44.17.44.44,0,0,0-.27.12.32.32,0,0,0-.12.28c0,.07,0,.2,0,.38v1.52c0,.14,0,.27,0,.4s0,.26,0,.41,0,.12,0,.24v1a1.13,1.13,0,0,0,0,.22l0,.36,0,.36c0,.11,0,.18,0,.22s0,.38,0,.7,0,.69,0,1.1,0,.84,0,1.29,0,.88,0,1.29,0,.76.05,1.09.05.55.07.69.05.28.07.41a2.71,2.71,0,0,1,0,.4,5.76,5.76,0,0,0,.07,1.11,9.5,9.5,0,0,1,.15,1.07c0,.08,0,.22,0,.41s0,.4,0,.62,0,.44,0,.63a2.81,2.81,0,0,1,0,.42,1,1,0,0,0,0,.29.31.31,0,0,0,.16.25.42.42,0,0,0,.26.06.38.38,0,0,0,.23-.11.32.32,0,0,0,.12-.27,9.64,9.64,0,0,0,0-1.52c0-.51-.09-1-.14-1.55q0-.36-.09-.69a3.71,3.71,0,0,1-.06-.67,4.66,4.66,0,0,0-.1-.9s0-.06.07-.06a.21.21,0,0,0,.12,0,2.29,2.29,0,0,0,.46-.16l.69-.27c.24-.09.47-.18.68-.28l.44-.2c.4-.22.81-.42,1.22-.61l1.25-.56a9.33,9.33,0,0,0,.83-.43,3.06,3.06,0,0,1,.86-.31l.73-.33c.08,0,.13,0,.14,0,.46.55.9,1.11,1.33,1.67s.87,1.1,1.34,1.63a.89.89,0,0,0,.13.14.92.92,0,0,1,.14.14,1.28,1.28,0,0,1,.24.26C166.42,225.5,166.49,225.58,166.54,225.59Zm-8.45-2.7-.49.22-.73.33c-.26.12-.51.22-.74.31l-.51.17s0,0,0,0h0c0-.13,0-.4,0-.79s0-.82,0-1.26,0-.85,0-1.24,0-.64,0-.78a6.41,6.41,0,0,0,0-1.16c0-.39-.06-.78-.08-1.16,0-.06,0-.16,0-.3s0-.3,0-.46,0-.31,0-.45,0-.23,0-.3c0-.34.06-.67.07-1s0-.67,0-1c0-.09,0-.14,0-.15l.56-.26q.39.42.81.81c.28.25.56.52.83.79s.58.6.86.88.55.59.81.91l.28.37.46.56.45.56a2.69,2.69,0,0,0,.29.32l.9,1c.3.34.59.68.88,1l-.24.12a.56.56,0,0,1-.26.1c-.28.09-.56.2-.84.32l-.8.4L160,222l-.73.33c-.25.11-.49.22-.71.34Zm-1-1.17c.48-.2.95-.4,1.42-.62l1.38-.62-.58-.72c-.3-.37-.63-.76-1-1.16l-1-1.16a8.55,8.55,0,0,0-.61-.71s0,0,0,.07a.41.41,0,0,1,0,.14.24.24,0,0,0,0,.09.22.22,0,0,1,0,.09c.05.78.1,1.55.16,2.3S157,220.94,157.08,221.72Z" transform="translate(-26.28 -41.84)"/><path class="cls-5" d="M178.7,221.37a1.09,1.09,0,0,1-.38.27l-.4.2-.47.21-.77.35-.77.34-.47.22-.36.17a.37.37,0,0,1-.34,0,.73.73,0,0,1-.19-.14l-.17-.15c0-.05-.07-.16-.14-.35l-.15-.35-.83-1.82-.87-1.81c-.56-1.2-1.11-2.41-1.64-3.62s-1.05-2.42-1.57-3.65l-.91.38-1.47.61-1.46.6-.91.39a.93.93,0,0,0-.22.08.3.3,0,0,1-.21,0,.48.48,0,0,1-.51-.31s-.06-.11-.14-.25a1.46,1.46,0,0,1-.14-.25c-.07-.14-.17-.37-.32-.71s-.31-.68-.46-1-.3-.72-.42-1a2.8,2.8,0,0,1-.2-.73.55.55,0,0,1,.1-.39.82.82,0,0,1,.33-.29l.39-.15.62-.24.62-.23.39-.15c.52-.2,1-.42,1.53-.65l1.5-.73.49-.22a5.33,5.33,0,0,0,.6-.25l.94-.46,1-.44a5.33,5.33,0,0,1,.6-.25s0,0,.06,0h0l.71-.32,1.16-.52,1.16-.51.72-.32a4,4,0,0,0,.46-.26,1.83,1.83,0,0,1,.46-.24.64.64,0,0,1,.42.08.69.69,0,0,1,.3.31l.52,1.15c.17.39.34.77.49,1.16,0,.06.09.17.17.34s.17.33.26.51.18.34.26.51.14.27.17.33a.48.48,0,0,1-.29.62l-.07,0a1.37,1.37,0,0,1-.26.16l-.41.22-.43.22-.28.14-1.45.7-1.48.71q.38.84.72,1.68c.22.56.46,1.12.71,1.67.07.16.2.44.39.83s.4.84.64,1.35l.75,1.6c.27.55.51,1.09.75,1.6s.43,1,.61,1.35.3.66.37.82l.09.23a.76.76,0,0,0,.11.22A.33.33,0,0,1,178.7,221.37Zm-2.81-.41a.32.32,0,0,0,.24.17.3.3,0,0,0,.26-.06.47.47,0,0,0,.17-.2.33.33,0,0,0,0-.29l-.43-1c-.21-.47-.44-1-.69-1.52l-.68-1.51c-.22-.47-.36-.79-.43-.95L174,215l-.53-1c-.18-.37-.36-.72-.51-1s-.26-.53-.31-.65c-.23-.5-.47-1-.73-1.46s-.53-1-.78-1.44c-.12-.22-.22-.44-.32-.66a4,4,0,0,0-.33-.65l5.35-2.42a.43.43,0,0,0,.24-.24.43.43,0,0,0-.22-.5.36.36,0,0,0-.32,0l-10.68,4.84a.43.43,0,0,0-.24.24.43.43,0,0,0,.22.5.36.36,0,0,0,.32,0l4.62-2.1a4.41,4.41,0,0,1,.33.65,6.65,6.65,0,0,0,.32.66c.26.49.52,1,.79,1.44a15.38,15.38,0,0,1,.75,1.46c0,.09.14.3.31.62s.34.68.52,1.05.35.73.52,1.05l.32.66c.35.77.7,1.54,1.06,2.3s.71,1.53,1.06,2.3a.82.82,0,0,1,.06.19A.29.29,0,0,0,175.89,221Z" transform="translate(-26.28 -41.84)"/><path class="cls-5" d="M198.31,212.56c-1.23.56-2.45,1.14-3.65,1.73s-2.43,1.16-3.68,1.68l-.73.31-1.16.46-1.16.49-.72.31-.35.2a.41.41,0,0,1-.34,0,.49.49,0,0,1-.23-.14,1.19,1.19,0,0,1-.18-.25c0-.13-.13-.34-.26-.64s-.28-.62-.46-1-.35-.78-.55-1.19l-.57-1.19c-.18-.37-.33-.71-.47-1l-.28-.63q-2.07-4.57-4-9.23l-.52-1.13a.39.39,0,0,1,0-.33.41.41,0,0,1,.23-.25l.48-.23.77-.36.76-.36.48-.23q2.13-1,4.25-2t4.29-1.91l.37-.18a1,1,0,0,1,.4-.14.39.39,0,0,1,.28.08,1.25,1.25,0,0,1,.23.27,1.63,1.63,0,0,1,.19.34,2.85,2.85,0,0,0,.13.33c.16.4.33.8.5,1.19s.32.78.46,1.17a.34.34,0,0,1-.08.4,1.25,1.25,0,0,1-.39.27L189.22,201c-1,.52-2.08,1-3.13,1.49l-.23.1-.38.19a3.44,3.44,0,0,1-.39.19l-.22.1c.17.42.34.83.53,1.22a12.63,12.63,0,0,1,.5,1.2q1.51-.63,2.94-1.32c1-.46,1.93-.91,2.94-1.34l.1-.06a.15.15,0,0,1,.11,0,.34.34,0,0,1,.31.09.42.42,0,0,1,.14.28c.24.52.47,1,.7,1.56l.7,1.6a.45.45,0,0,1-.2.55l-.65.3-1.05.49-1.25.57-1.27.58c-.4.18-.76.34-1.06.49l-.65.31c0,.08.11.23.23.45s.23.48.35.76.24.53.35.77.18.39.21.47c1.18-.51,2.34-1,3.5-1.55s2.3-1.08,3.44-1.65l.25-.17a.45.45,0,0,1,.26-.09.37.37,0,0,1,.6.13,4.31,4.31,0,0,1,.32.62c.15.34.31.69.49,1.05l.48,1c.15.32.26.54.32.64a.32.32,0,0,1,0,.33A.42.42,0,0,1,198.31,212.56Zm-7.71,2.07a5.51,5.51,0,0,0,1.07-.5c.34-.2.69-.39,1-.57.11-.07.32-.17.63-.33l1-.48,1-.49.64-.3a.37.37,0,0,0,.24-.27.47.47,0,0,0-.06-.33.51.51,0,0,0-.25-.21.36.36,0,0,0-.35.09,1,1,0,0,1-.25.14l-.4.18-.39.19-.24.13a9.7,9.7,0,0,1-1,.48,8.24,8.24,0,0,0-.94.47c-.35.18-.7.37-1,.56a6.07,6.07,0,0,1-1.06.5c-.31.1-.62.22-.91.34a7.09,7.09,0,0,0-.87.44,3.24,3.24,0,0,1-.37.19l-.38.18c0-.12-.15-.34-.31-.68l-.48-1.11c-.18-.39-.34-.76-.49-1.1s-.26-.57-.31-.68L186,211c-.1-.25-.21-.51-.33-.79s-.22-.54-.33-.79l-.2-.49.52-.26.82-.4.81-.39a4.41,4.41,0,0,0,.5-.27,4.41,4.41,0,0,1,.65-.33c.23-.08.46-.17.68-.27s.55-.23.82-.36.55-.27.82-.42L191,206a1.13,1.13,0,0,1,.34-.09.34.34,0,0,0,.27-.27.4.4,0,0,0-.06-.4.43.43,0,0,0-.57-.09c-.24.11-.47.22-.66.33a7.41,7.41,0,0,1-.94.46c-.32.12-.64.26-1,.4-.63.29-1.25.59-1.85.91s-1.22.63-1.84.91l-2.71-6,0-.09a.14.14,0,0,1,0-.11,4.18,4.18,0,0,0,.68-.38,3,3,0,0,1,.7-.33,11.08,11.08,0,0,0,1.23-.41c.39-.16.79-.33,1.18-.51l1.06-.51c.35-.15.7-.3,1.06-.42a9.89,9.89,0,0,0,1.26-.46,12.62,12.62,0,0,1,1.26-.48.41.41,0,0,0,.42-.27.34.34,0,0,0-.18-.44.4.4,0,0,0-.32-.09l-.59.2-.93.35-.92.36a5.86,5.86,0,0,0-.58.24l-.18,0-.18,0-.46.23-.74.35c-.27.12-.52.23-.74.35l-.46.22-.32.11-.52.18-.53.18-.33.12a7.88,7.88,0,0,0-.7.37c-.24.13-.48.26-.73.37a.52.52,0,0,0-.26.31.45.45,0,0,0,0,.39c.73,1.63,1.47,3.24,2.2,4.83s1.43,3.22,2.1,4.86c.06.12.17.38.33.75s.33.78.53,1.2l.54,1.2.33.72c.06.15.15.23.26.24a1,1,0,0,0,.38,0,2.06,2.06,0,0,0,.42-.17l.41-.2a2,2,0,0,0,.29-.16l.28-.15a3.39,3.39,0,0,1,.66-.33Z" transform="translate(-26.28 -41.84)"/><path class="cls-5" d="M213.44,205.76a.58.58,0,0,1-.51.12.42.42,0,0,1-.26-.12l-.21-.21-.8-.76c-.27-.25-.54-.5-.83-.75-.66-.58-1.33-1.13-2-1.64s-1.38-1-2.05-1.57l-1.72.71c-.58.23-1.15.46-1.74.68l.52,1.11c.26.55.54,1.14.83,1.77s.57,1.22.82,1.77L206,208a1.36,1.36,0,0,1,.09.23.65.65,0,0,0,.11.22.32.32,0,0,1-.06.49.72.72,0,0,1-.25.18,4.09,4.09,0,0,1-.42.2l-.42.2-.3.13-.35.16-.57.24-.56.24-.35.16-.32.19a.46.46,0,0,1-.32,0,.38.38,0,0,1-.28-.14.74.74,0,0,1-.18-.25,5.71,5.71,0,0,0-.26-.64c-.14-.29-.29-.63-.46-1s-.36-.77-.55-1.19l-.57-1.18-.47-1c-.13-.29-.22-.5-.28-.62q-2.07-4.57-4-9.23l-.52-1.14a.38.38,0,0,1,0-.33.42.42,0,0,1,.23-.24l.53-.26.82-.4c.3-.14.58-.28.84-.39l.53-.25c.47-.19.93-.39,1.4-.6l1.39-.63,1.94-.92a10.84,10.84,0,0,1,2-.71,5.9,5.9,0,0,1,1.63-.14,5.23,5.23,0,0,1,1.61.36,4.15,4.15,0,0,1,.92.55,8,8,0,0,1,.78.76,4.91,4.91,0,0,1,.63.91,7.15,7.15,0,0,1,.45,1,7.54,7.54,0,0,1,.49,1.7,5.85,5.85,0,0,1,0,1.77,4.17,4.17,0,0,1-.33,1.13,6,6,0,0,1-.61,1c.12.12.34.31.64.57l1,.91c.39.34.79.69,1.23,1l1.23,1.06c.39.34.74.63,1.05.88l.69.53a.67.67,0,0,0,.2.12.36.36,0,0,1,.15.15.42.42,0,0,1-.16.5,3.54,3.54,0,0,1-.52.34l-.4.2-.62.31-.63.32Zm-.27-1.55a.38.38,0,0,0,.46,0,.35.35,0,0,0,.17-.42.47.47,0,0,0-.17-.23l-.3-.27-.34-.24-.28-.19q-1.08-.89-2.07-1.83c-.65-.64-1.34-1.27-2-1.9l-.11-.12-.21-.21-.2-.19-.14-.12a10.11,10.11,0,0,0,.93-.82,2,2,0,0,0,.54-1,4.37,4.37,0,0,0,.08-1.08,5.24,5.24,0,0,0-.18-1.05,2.74,2.74,0,0,0-.14-.37c-.08-.17-.16-.34-.26-.51s-.2-.34-.29-.49l-.22-.32a5.37,5.37,0,0,0-1.14-.91,2.51,2.51,0,0,0-1.34-.4h-1.14a4.78,4.78,0,0,0-1.11.19c-.22.07-.43.13-.64.21a3.25,3.25,0,0,1-.65.15l-.66.16a3.94,3.94,0,0,0-.63.22c-.38.18-.75.35-1.12.54s-.75.36-1.14.52l-.15,0a.42.42,0,0,0-.16,0l-.64.28-.65.27a.65.65,0,0,0-.31.57l.08.18.13.29c.05.1.09.2.14.29l.08.19q.68,1.5,1.38,3c.46,1,.92,2,1.37,3a.38.38,0,0,0,0,.36.39.39,0,0,0,.27.23l.34.76c.18.38.36.78.55,1.21s.38.82.54,1.19.29.62.34.75c.18.34.34.67.51,1s.33.66.49,1a.36.36,0,0,0,.3.25.47.47,0,0,0,.34-.1A.41.41,0,0,0,204,208a.36.36,0,0,0-.15-.34l-.05,0v0l-.16-.33c-.09-.17-.18-.36-.28-.56s-.2-.38-.28-.55l-.18-.35-.32-.73-.54-1.18-.53-1.17c-.17-.37-.28-.61-.33-.74s0-.08.05-.09l.16-.06c.57-.3,1.14-.58,1.73-.86s1.15-.56,1.71-.87l1.18-.54.25-.12.38-.2.39-.21.26-.13a.45.45,0,0,0,.12.16l.17.11,1,1c.33.3.66.63,1,1,.07.08.24.23.49.46s.53.47.82.73l.82.71.53.43a3.41,3.41,0,0,0,.48.37A5.15,5.15,0,0,1,213.17,204.21Zm-11.68-3.34-.35.19a3.07,3.07,0,0,1-.36.2c-.06-.15-.17-.38-.32-.72l-.52-1.14c-.2-.44-.41-.9-.64-1.38l-.64-1.38c-.2-.44-.37-.82-.53-1.15l-.34-.7.52-.24a3.73,3.73,0,0,1,.54-.21,5.33,5.33,0,0,0,.6-.25l1-.43,1-.44A6.07,6.07,0,0,1,202,193l.29,0,.27,0a6.43,6.43,0,0,0,.7-.2,5,5,0,0,1,.69-.2,4,4,0,0,1,1.07-.17,1.28,1.28,0,0,1,.31,0l.42,0,.41,0,.29.07c.28.14.56.29.83.46a2.08,2.08,0,0,1,.65.67l.46.79a2.42,2.42,0,0,1,.29.87,2.11,2.11,0,0,1,0,.3v.41c0,.15,0,.28,0,.41a1.41,1.41,0,0,1-.05.29,2.61,2.61,0,0,1-.51.72,4.81,4.81,0,0,1-.66.55l-.27.14-.42.23-.41.23-.25.13a6.15,6.15,0,0,1-.81.41l-.82.36-.32.2-.33.18-1.17.53Zm.22-2.23,1.6-.69c.53-.22,1.06-.46,1.59-.7l.79-.4a3.38,3.38,0,0,0,.75-.5,3.35,3.35,0,0,0,.51-.49,1.17,1.17,0,0,0,.27-.61,1.08,1.08,0,0,0-.15-.64,2.61,2.61,0,0,0-.39-.57,1,1,0,0,0-.6-.3,2.48,2.48,0,0,0-.77,0,5,5,0,0,0-.82.17,4.62,4.62,0,0,0-.7.25,35.06,35.06,0,0,0-3.4,1.45c.23.5.46,1,.68,1.5S201.51,198.12,201.71,198.64Z" transform="translate(-26.28 -41.84)"/><path class="cls-5" d="M223.35,201.1a.88.88,0,0,1-.38.27l-.41.2-.47.22-.78.34-.77.33-.47.22-.36.2a.41.41,0,0,1-.34,0,.43.43,0,0,1-.22-.15.63.63,0,0,1-.18-.24,6.6,6.6,0,0,0-.26-.64c-.14-.29-.29-.63-.46-1s-.36-.77-.55-1.19l-.57-1.18c-.18-.38-.34-.71-.47-1l-.28-.63q-2.07-4.58-4-9.23l-.52-1.14a.33.33,0,0,1,0-.32.41.41,0,0,1,.23-.25l.48-.23.76-.36.77-.36.48-.24.82-.35c.3-.13.52-.09.66.11a1.29,1.29,0,0,1,.18.33l.25.54.23.53a3.46,3.46,0,0,0,.14.35q1.32,2.81,2.46,5.62l.41.91.69,1.49.83,1.78.84,1.77.69,1.49c.19.44.33.74.41.91a1.36,1.36,0,0,1,.09.23.68.68,0,0,0,.12.22A.33.33,0,0,1,223.35,201.1Zm-3-.27a.38.38,0,0,0,.47-.24.37.37,0,0,0-.2-.49.59.59,0,0,1-.16-.27c-.06-.14-.1-.25-.13-.31-.11-.21-.28-.56-.5-1.05s-.48-1.05-.75-1.69-.57-1.3-.87-2-.58-1.37-.86-2-.51-1.2-.71-1.7-.35-.86-.44-1.09l-.06-.21a3.66,3.66,0,0,0-.12-.35c0-.12-.09-.23-.12-.34s-.07-.17-.08-.21c-.15-.37-.32-.73-.5-1.1s-.36-.72-.53-1.09a.37.37,0,0,0-.23-.23.41.41,0,0,0-.29,0,.38.38,0,0,0-.19.54c0,.07.09.21.19.42s.2.44.32.67l.32.67c.09.21.16.35.18.41s.1.23.19.46.17.48.27.73l.28.75c.09.24.15.38.17.45s.2.51.39.94L217,194l.74,1.76c.27.63.52,1.21.77,1.75l.66,1.46c.19.43.34.73.44.91l.18.41a2.41,2.41,0,0,0,.22.41A.56.56,0,0,0,220.31,200.83Z" transform="translate(-26.28 -41.84)"/><path class="cls-5" d="M239.23,194c-1.23.56-2.44,1.13-3.65,1.73s-2.43,1.15-3.68,1.68l-.73.3-1.16.47-1.16.48-.72.31-.35.21a.37.37,0,0,1-.34,0,.45.45,0,0,1-.23-.14,1.15,1.15,0,0,1-.18-.24,5.71,5.71,0,0,0-.26-.64c-.13-.29-.28-.63-.46-1s-.35-.77-.55-1.19-.38-.81-.56-1.19-.34-.7-.47-1-.23-.5-.29-.62q-2.07-4.58-4-9.23l-.51-1.14a.35.35,0,0,1,0-.33.45.45,0,0,1,.23-.24l.48-.24.77-.36.76-.36.48-.23q2.13-1,4.25-2l4.29-1.92.37-.18a1.17,1.17,0,0,1,.4-.14.35.35,0,0,1,.28.09,1.47,1.47,0,0,1,.23.26,1.7,1.7,0,0,1,.19.35c0,.12.09.23.13.32.17.41.33.8.5,1.19s.32.78.46,1.18a.33.33,0,0,1-.08.39,1.48,1.48,0,0,1-.39.28l-3.09,1.52c-1,.52-2.08,1-3.13,1.5l-.23.1c-.12,0-.24.12-.38.19l-.39.19-.22.1c.17.42.34.82.53,1.21a10.47,10.47,0,0,1,.5,1.2c1-.42,2-.86,3-1.32s1.93-.9,2.93-1.34l.1-.06a.15.15,0,0,1,.11,0,.41.41,0,0,1,.31.09.44.44,0,0,1,.14.28c.24.52.47,1,.7,1.57s.46,1,.71,1.59a.46.46,0,0,1-.21.55l-.65.31c-.3.15-.65.31-1,.49l-1.25.57-1.27.57-1.06.5-.65.3.23.46c.11.23.23.48.35.75l.35.77c.11.24.18.4.22.47l3.49-1.55c1.15-.52,2.3-1.07,3.44-1.65a2.71,2.71,0,0,0,.25-.17.66.66,0,0,1,.27-.09.37.37,0,0,1,.6.13c0,.09.16.3.31.63s.31.68.49,1.05.34.71.48,1a7.13,7.13,0,0,0,.32.64.33.33,0,0,1,0,.33A.38.38,0,0,1,239.23,194Zm-7.71,2.07a6.64,6.64,0,0,0,1.08-.5c.33-.2.68-.39,1-.58l.62-.32,1-.49,1-.48c.31-.15.52-.26.64-.3a.39.39,0,0,0,.24-.28.4.4,0,0,0-.06-.32.47.47,0,0,0-.25-.21.38.38,0,0,0-.35.08.75.75,0,0,1-.25.14l-.4.19a2.69,2.69,0,0,0-.38.19l-.25.12q-.48.27-1,.48a9.32,9.32,0,0,0-.95.47c-.35.18-.7.37-1,.57a5.72,5.72,0,0,1-1.06.49l-.91.34a8.86,8.86,0,0,0-.87.44,2.64,2.64,0,0,1-.37.2l-.38.17-.3-.68c-.16-.33-.32-.7-.49-1.1s-.34-.77-.49-1.11-.26-.56-.31-.67l-.2-.49-.34-.8c-.11-.28-.22-.54-.33-.79l-.2-.49.52-.25.82-.4.81-.4a3.64,3.64,0,0,0,.5-.27,3.35,3.35,0,0,1,.66-.32l.67-.28a6.58,6.58,0,0,0,.82-.36l.83-.41a1.34,1.34,0,0,1,.31-.17,1.13,1.13,0,0,1,.34-.1.32.32,0,0,0,.27-.27.41.41,0,0,0-.06-.4.44.44,0,0,0-.57-.08c-.24.11-.47.22-.66.33a9,9,0,0,1-.94.45c-.32.13-.64.26-1,.41-.63.28-1.25.59-1.85.91s-1.22.62-1.83.9l-2.72-6,0-.1a.16.16,0,0,1,0-.1,6.52,6.52,0,0,0,.68-.38,2.67,2.67,0,0,1,.7-.34,9.34,9.34,0,0,0,1.23-.41c.4-.16.79-.33,1.18-.51s.71-.35,1.06-.5.7-.3,1.06-.43a8,8,0,0,0,1.27-.46,12.43,12.43,0,0,1,1.25-.48.41.41,0,0,0,.42-.26.34.34,0,0,0-.17-.45.41.41,0,0,0-.33-.08c-.1,0-.3.09-.59.2s-.61.22-.93.35l-.92.35-.58.24a.82.82,0,0,1-.18,0,.48.48,0,0,0-.18,0l-.46.22-.74.35-.74.35-.46.22-.32.12-.51.17-.53.19-.34.12c-.23.11-.47.23-.7.36s-.48.26-.73.38a.52.52,0,0,0-.26.3.47.47,0,0,0,0,.4c.73,1.62,1.47,3.24,2.2,4.83s1.43,3.21,2.1,4.85c.06.13.17.38.33.76s.33.77.53,1.2l.54,1.2.33.72a.36.36,0,0,0,.26.24,1.29,1.29,0,0,0,.38,0,2,2,0,0,0,.42-.16l.41-.2.29-.16.28-.16a3.79,3.79,0,0,1,.67-.33C231.05,196.23,231.29,196.16,231.52,196.09Z" transform="translate(-26.28 -41.84)"/><path class="cls-5" d="M252,188.33c-1.21.64-2.45,1.23-3.71,1.75s-2.54,1.07-3.8,1.63l-.25.12-.38.19-.39.18-.26.09a.62.62,0,0,1-.31-.08.65.65,0,0,1-.25-.21c-.2-.39-.38-.78-.56-1.16s-.36-.78-.55-1.17l-.16-.31c-.08-.15-.15-.31-.23-.48l-.22-.49a1.36,1.36,0,0,1-.12-.33.63.63,0,0,1,0-.27.52.52,0,0,1,.16-.22,3.69,3.69,0,0,1,.52-.25l.8-.33.81-.33c.26-.09.44-.17.53-.21l.49-.22.78-.35.79-.36.5-.23a1,1,0,0,0,.28-.2,5,5,0,0,0,.63-.67,2,2,0,0,0,.19-.28.83.83,0,0,0-.13-.87,1.46,1.46,0,0,0-.83-.5,3.3,3.3,0,0,0-.77-.07c-.27,0-.53,0-.78,0a17.92,17.92,0,0,0-2.08.27,6.77,6.77,0,0,1-2.06.06,5.37,5.37,0,0,1-1.84-.6,4.17,4.17,0,0,1-1.46-1.22,3.7,3.7,0,0,1-.48-.79c-.13-.3-.24-.59-.34-.89a6.34,6.34,0,0,0-.26-.81,2.92,2.92,0,0,1-.17-.82,4.39,4.39,0,0,1,.54-2.22,4.91,4.91,0,0,1,.74-1,5.66,5.66,0,0,1,1-.8,11.34,11.34,0,0,1,1.12-.61l1.8-.88,1.83-.84,1.2-.54.43-.21a2.2,2.2,0,0,1,.43-.18.82.82,0,0,1,.4,0,.34.34,0,0,1,.27.23q.27.59.57,1.14c.21.36.41.74.6,1.13a4.44,4.44,0,0,0,.25.48.72.72,0,0,1,.08.51.53.53,0,0,1-.24.38,4.09,4.09,0,0,1-.39.22L246,175c-.37.16-.77.32-1.21.49l-1.22.48-.73.31a6.52,6.52,0,0,0-.58.3,3,3,0,0,0-.57.43,2.36,2.36,0,0,0-.4.51.83.83,0,0,0-.12.57.86.86,0,0,0,.25.48.9.9,0,0,0,.32.17l.36.13a2.41,2.41,0,0,0,.76.11,6.48,6.48,0,0,0,.77-.07c.54-.07,1.09-.13,1.64-.18s1.11-.09,1.65-.11h.68a4,4,0,0,1,.69.07,4.39,4.39,0,0,1,1,.35,3.78,3.78,0,0,1,.91.6,5.55,5.55,0,0,1,.89,1,9.56,9.56,0,0,1,.71,1.12q.46.83.84,1.68a10.07,10.07,0,0,1,.58,1.76,3.7,3.7,0,0,1,.1.58,4.08,4.08,0,0,1,0,.61,2.14,2.14,0,0,1-.47,1.3,1.44,1.44,0,0,1-.42.36Zm-7.86,1.54.27-.13.41-.18.4-.2a1.5,1.5,0,0,0,.24-.15,4.51,4.51,0,0,1,1.07-.6,8.06,8.06,0,0,0,1.1-.55,6,6,0,0,1,.79-.42l.81-.39.65-.39a1.21,1.21,0,0,0,.49-.56,1.26,1.26,0,0,1,.13-.26,1,1,0,0,0,.11-.28,2,2,0,0,0,0-.55,1.49,1.49,0,0,0-.08-.57,6.71,6.71,0,0,0-1.42-2.44c-.16-.19-.33-.37-.49-.54a2.32,2.32,0,0,0-.55-.44,4.42,4.42,0,0,0-.63-.29,4.26,4.26,0,0,1-.62-.26,2.49,2.49,0,0,0-.74-.19c-.35,0-.71-.07-1.08-.08H244a5.21,5.21,0,0,0-.78,0l-1.43.12a3.09,3.09,0,0,1-1.38-.22l-.6-.24a.83.83,0,0,1-.44-.4c-.13-.3-.25-.6-.36-.91a3,3,0,0,1-.18-.93,2,2,0,0,0,0-.32,1.38,1.38,0,0,1,0-.32,2.84,2.84,0,0,1,.14-.39,3.93,3.93,0,0,1,.17-.37,1.14,1.14,0,0,1,.16-.16l.25-.23.26-.22.19-.13.41-.17.66-.27.65-.27.42-.17a2.6,2.6,0,0,0,.49-.28,2.6,2.6,0,0,1,.49-.28,2.38,2.38,0,0,0,.41-.23,3.3,3.3,0,0,1,.41-.23l.19-.07a1.53,1.53,0,0,0,.27-.11l.26-.11a.42.42,0,0,0,.15-.1.37.37,0,0,0,.1-.29.36.36,0,0,0-.1-.25.38.38,0,0,0-.23-.13.42.42,0,0,0-.29.08.31.31,0,0,1-.16.07l-.16,0a4.85,4.85,0,0,0-.61.29c-.19.12-.39.23-.59.34a2,2,0,0,0-.23.14l-.36.22-.37.2a.7.7,0,0,1-.25.11,3.11,3.11,0,0,0-.54.18l-.53.22a8.13,8.13,0,0,0-1.07.52,3,3,0,0,0-.86.78,1.38,1.38,0,0,0-.25.42,4.59,4.59,0,0,1-.17.48,2.1,2.1,0,0,0-.14.91c0,.32.06.63.1.94,0,.07,0,.17.08.32s.1.28.16.43.11.28.17.42a1.5,1.5,0,0,0,.16.28,2.21,2.21,0,0,0,.77.65,6,6,0,0,0,.94.41,2.23,2.23,0,0,0,1,.14c.34,0,.69,0,1,0a3.18,3.18,0,0,0,.43-.06l.42-.07a6.76,6.76,0,0,1,.68,0l1,0c.33,0,.65,0,.95.06a3.26,3.26,0,0,1,.66.13c.28.11.55.22.82.35a3.43,3.43,0,0,1,.72.47,5.4,5.4,0,0,1,1,1.24,8.75,8.75,0,0,1,.71,1.44c0,.06,0,.17,0,.34a1.84,1.84,0,0,1,0,.34s-.05.13-.11.25l-.12.25a.85.85,0,0,1-.29.22l-.33.18-.71.35-1.13.58-1.15.59c-.35.18-.58.31-.68.37a.51.51,0,0,0-.2.14.77.77,0,0,1-.2.13,2.11,2.11,0,0,1-.49.26l-.52.22a.4.4,0,0,0-.41.3.35.35,0,0,0,.21.45A.43.43,0,0,0,244.18,189.87Z" transform="translate(-26.28 -41.84)"/></svg>